HIERARCHY
ROOT Hips
{
	OFFSET 0.000000 0.000000 0.000000
	CHANNELS 6 Xposition Yposition Zposition Zrotation Yrotation Xrotation 
	JOINT LHipJoint
	{
		OFFSET 0.000000 0.000000 0.000000
		CHANNELS 3 Zrotation Yrotation Xrotation
		JOINT LeftUpLeg
		{
			OFFSET 1.363060 -1.794630 0.839290
			CHANNELS 3 Zrotation Yrotation Xrotation
			JOINT LeftLeg
			{
				OFFSET 2.448110 -6.726130 0.000000
				CHANNELS 3 Zrotation Yrotation Xrotation
				JOINT LeftFoot
				{
					OFFSET 2.562200 -7.039590 0.000000
					CHANNELS 3 Zrotation Yrotation Xrotation
					JOINT LeftToeBase
					{
						OFFSET 0.157640 -0.433110 2.322550
						CHANNELS 3 Zrotation Yrotation Xrotation
						End Site
						{
							OFFSET 0.000000 0.000000 0.000000
						}
					}
				}
			}
		}
	}
	JOINT RHipJoint
	{
		OFFSET 0.000000 0.000000 0.000000
		CHANNELS 3 Zrotation Yrotation Xrotation
		JOINT RightUpLeg
		{
			OFFSET -1.305520 -1.794630 0.839290
			CHANNELS 3 Zrotation Yrotation Xrotation
			JOINT RightLeg
			{
				OFFSET -2.542530 -6.985550 0.000000
				CHANNELS 3 Zrotation Yrotation Xrotation
				JOINT RightFoot
				{
					OFFSET -2.568260 -7.056230 0.000000
					CHANNELS 3 Zrotation Yrotation Xrotation
					JOINT RightToeBase
					{
						OFFSET -0.164730 -0.452590 2.363150
						CHANNELS 3 Zrotation Yrotation Xrotation
						End Site
						{
							OFFSET 0.000000 0.000000 0.000000
						}
					}
				}
			}
		}
	}
}
MOTION
Frames: 33
Frame Time: 0.008333
-12.522541 16.921173 -0.623421 144.744575 85.809806 160.155837 -10.990070 3.944230 -0.077171 -5.408208 1.727839 -2.179327 -0.825223 1.842786 28.809342 0.264372 -3.261159 12.078746 -1.084700 0.000000 -86.152600 8.151990 -0.077067 3.644992 10.770758 7.031257 -36.644890 3.203926 1.041582 4.958544 -0.328469 -1.738779 0.632191 -0.989601 0.000000 -37.533700
-12.261484 16.924768 -0.604579 148.231189 85.931074 163.617287 -11.206244 3.911887 -0.108528 -4.714465 2.308735 -4.074916 -0.485103 2.026717 32.776963 0.467192 -3.146151 15.026793 -1.329100 0.000000 -85.067300 8.064680 -0.263152 3.881098 10.891424 8.167245 -36.149915 3.089553 0.892660 5.966771 -0.444159 -2.426840 1.017674 -1.155101 0.000000 -31.482900
-12.003753 16.929209 -0.588940 152.969200 86.124384 168.395748 -11.420908 3.802847 -0.133572 -4.017743 2.802011 -6.166991 -0.161269 2.167038 36.838830 0.715120 -2.521815 17.664011 -1.362499 0.000000 -81.795200 7.941516 -0.449291 4.133408 11.147601 9.352725 -35.792761 3.010946 0.749883 7.018923 -0.535453 -2.952158 1.281648 -1.286200 -0.000001 -25.175000
-11.751235 16.934752 -0.575507 158.622602 86.371219 174.129037 -11.618048 3.633006 -0.158571 -3.392031 3.174009 -8.378128 0.121725 2.283910 40.913355 0.985144 -1.340679 19.760347 -1.086800 0.000000 -76.483500 7.798341 -0.620048 4.370290 11.511966 10.499323 -35.539726 2.962623 0.608754 8.130704 -0.596586 -3.286360 1.416454 -1.369200 0.000000 -19.455400
-11.504928 16.941662 -0.564016 165.326987 86.652409 -179.061290 -11.803949 3.417071 -0.187879 -2.843882 3.436955 -10.684545 0.358214 2.398915 44.944852 1.255537 0.333737 21.136347 -0.489400 -0.000000 -69.723900 7.631127 -0.772819 4.579198 11.978798 11.575284 -35.347213 2.941636 0.473277 9.282496 -0.633761 -3.456975 1.384648 -1.403300 0.000000 -14.469600
-11.265700 16.950401 -0.553387 172.752399 86.938813 -171.523880 -11.982980 3.169963 -0.223156 -2.406447 3.585056 -13.046192 0.556789 2.527575 48.856813 1.513123 2.395369 21.720242 0.367100 0.000000 -62.406100 7.441620 -0.904245 4.742700 12.512747 12.533940 -35.162529 2.940490 0.345423 10.454564 -0.651823 -3.486260 1.167100 -1.389300 -0.000000 -10.404700
-11.033753 16.961399 -0.542595 -179.489104 87.196604 -163.658666 -12.158299 2.896738 -0.261288 -2.094450 3.603944 -15.434165 0.734960 2.671818 52.579111 1.751826 4.691514 21.536706 1.359799 0.000000 -55.406200 7.231966 -1.017796 4.852300 13.081517 13.345555 -34.936913 2.953547 0.229029 11.607269 -0.659014 -3.409986 0.744555 -1.333400 0.000000 -7.182701
-10.808837 16.975072 -0.530769 -171.826246 87.398559 -155.899902 -12.323410 2.597033 -0.295943 -1.907151 3.473305 -17.827422 0.908100 2.823111 56.051495 1.969387 7.057342 20.667686 2.347100 0.000000 -49.321300 7.013236 -1.118703 4.907954 13.658129 13.998066 -34.629297 2.977215 0.128679 12.682584 -0.665055 -3.273087 0.117235 -1.246000 0.000000 -4.610400
-10.590287 16.991753 -0.516947 -164.816577 87.540579 -148.808572 -12.460952 2.275442 -0.320246 -1.843940 3.175215 -20.203898 1.081539 2.970816 59.217171 2.163653 9.342932 19.204495 3.201699 -0.000000 -44.276400 6.809078 -1.206837 4.911232 14.214879 14.483024 -34.205625 3.008537 0.048343 13.622096 -0.676659 -3.109758 -0.692577 -1.137300 0.000001 -2.528300
-10.376896 17.011581 -0.500641 -158.754617 87.636536 -142.674606 -12.558600 1.941253 -0.325545 -1.885564 2.702808 -22.549749 1.250963 3.107064 62.020629 2.331698 11.418997 17.240309 3.824801 0.000000 -40.144000 6.635681 -1.279929 4.870382 14.734680 14.816624 -33.640110 3.046177 -0.005512 14.359651 -0.699166 -2.957103 -1.638385 -1.019401 0.000000 -0.769700
-10.167287 17.034542 -0.481434 -153.883801 87.710762 -137.736963 -12.610050 1.606839 -0.302567 -2.012389 2.052083 -24.844664 1.406093 3.226411 64.401429 2.470218 13.189319 14.875886 4.159200 0.000000 -36.744200 6.501720 -1.334063 4.792720 15.199663 15.015702 -32.915432 3.088487 -0.027101 14.842604 -0.733409 -2.834519 -2.663342 179.099700 0.000000 -0.799400
-9.959914 17.060430 -0.459092 -150.357663 87.787124 -134.144330 -12.615637 1.283413 -0.241579 -2.201161 1.220386 -27.064785 1.534450 3.324361 66.299906 2.575909 14.588865 12.222959 4.191500 -0.000000 -33.847300 6.407090 -1.366905 4.685533 15.594918 15.097847 -32.026245 3.133892 -0.012345 15.035639 -0.776406 -2.744987 -3.706814 179.215200 -0.000000 -2.291500
-9.753197 17.088870 -0.433511 -148.296827 87.886753 -132.012347 -12.579295 0.979963 -0.133296 -2.425404 0.207695 -29.184688 1.623780 3.397042 67.663169 2.646897 15.587719 9.411855 3.953500 -0.000000 -31.346800 6.347012 -1.377958 4.555264 15.909556 15.077816 -30.978905 3.180760 0.040108 14.925543 -0.821911 -2.675921 -4.710115 179.324400 0.000000 -3.787000
-9.545656 17.119314 -0.404716 -147.803225 88.026834 -131.438788 -12.506285 0.703720 0.029928 -2.657681 -0.979923 -31.181256 1.664346 3.441858 68.451342 2.683789 16.192047 6.586840 3.514200 -0.000001 -29.197299 6.315164 -1.367788 4.407353 16.137082 14.966910 -29.791720 3.227599 0.128609 14.523039 -0.861348 -2.602586 -5.620851 179.425700 -0.000000 -5.321100
-9.336045 17.151002 -0.372918 -148.963342 88.221329 -132.506591 -12.401123 0.461308 0.252735 -2.870992 -2.325917 -33.038613 1.650957 3.458167 68.641176 2.690722 16.444021 3.898535 2.965700 0.000001 -27.419700 6.306078 -1.336785 4.246065 16.277082 14.774120 -28.492132 3.273360 0.248710 13.862474 -0.884870 -2.492420 -6.395349 179.517200 -0.000000 -6.876100
-9.123406 17.183103 -0.338477 -151.819248 88.481053 -135.255522 -12.265104 0.260487 0.535293 -3.039575 -3.799427 -34.749647 1.584289 3.447449 68.228646 2.675304 16.415696 1.486358 2.401600 0.000000 -26.067700 6.317598 -1.283731 4.075001 16.336053 14.508621 -27.112994 3.317753 0.393988 12.997313 -0.883023 -2.311277 -7.002536 179.597000 0.000000 -8.386000
-8.907097 17.214673 -0.301981 -156.292921 88.809732 -139.606295 -12.093338 0.110197 0.872079 -3.136467 -5.354669 -36.316528 1.470875 3.412043 67.230637 2.647224 16.195216 -0.548961 1.895401 0.000000 -25.149000 6.353464 -1.205639 3.898522 16.330155 14.184445 -25.689504 3.361359 0.556647 11.993434 -0.848778 -2.031533 -7.426062 179.663700 -0.000001 -9.754000
-8.686970 17.244745 -0.264016 -162.237619 89.204817 -145.415474 -11.871791 0.019933 1.251885 -3.139159 -6.936974 -37.743305 1.321483 3.352566 65.680792 2.616766 15.873545 -2.154786 1.491100 0.000000 -24.637400 6.427705 -1.098341 3.720938 16.281530 13.814297 -24.253881 3.404831 0.727625 10.923269 -0.778311 -1.632133 -7.670835 179.718400 0.000000 -10.899001
-8.463140 17.272484 -0.225255 -169.382356 89.647410 -152.414744 -11.580997 -0.009120 1.658425 -3.025482 -8.489426 -39.034855 1.149413 3.264148 63.629331 2.591611 15.520435 -3.347566 1.198700 0.000000 -24.377900 6.560585 -0.963471 3.550609 16.219572 13.418592 -22.837541 3.447787 0.896356 9.851087 -0.673580 -1.112095 -7.756423 179.763000 -0.000001 -11.741400
-8.236021 17.297092 -0.186526 2.594973 89.898867 19.718051 -11.208578 0.005927 2.073992 -2.776924 -9.965013 -40.195734 0.969258 3.135215 61.136502 2.575286 15.173798 -4.188831 1.005700 -0.000000 -24.221499 6.766662 -0.816008 3.399007 16.175433 13.021230 -21.472750 3.488469 1.050759 8.825645 -0.543092 -0.492671 -7.719282 179.800800 -0.000000 -12.250700
-8.006330 17.317998 -0.148334 -6.495817 89.465155 10.790995 -10.751993 0.037961 2.481430 -2.392098 -11.329511 -41.219307 0.793213 2.952912 58.258499 2.566379 14.838186 -4.764801 0.889000 0.000000 -24.059200 7.053723 -0.678514 3.275382 16.170623 12.639551 -20.184830 3.523604 1.178656 7.883244 -0.398355 0.197001 -7.609308 179.835800 0.000000 -12.434500
-7.774880 17.334747 -0.111135 -17.832405 89.095752 -0.372376 -10.213981 0.045543 2.864427 -1.872374 -12.564775 -42.096398 0.632685 2.700682 55.048026 2.557298 14.480825 -5.169459 0.820899 0.000000 -23.830600 7.426272 -0.583527 3.190779 16.225102 12.291328 -18.999204 3.549155 1.267085 7.040928 -0.254083 0.912790 -7.481785 179.870600 -0.000000 -12.339100
-7.542641 17.347098 -0.075040 -36.212469 88.948552 -18.574535 -9.608902 -0.078076 3.201187 -1.236795 -13.709900 -42.785458 0.508080 2.335438 51.553750 2.531981 14.037950 -5.468607 0.778700 -0.000001 -23.595100 7.886091 -0.611924 3.158471 16.348454 11.958541 -17.950860 3.556957 1.288861 6.278682 -0.129240 1.596281 -7.406455 179.906300 -0.000001 -12.054000
-7.310318 17.354844 -0.040293 -75.982562 89.483108 -58.157536 -9.321706 -0.646660 3.512108 -0.652313 -14.919086 -43.244317 0.434766 1.824482 47.792556 2.462640 13.428763 -5.702349 0.739600 -0.000000 -23.315000 8.043352 -1.004717 3.157362 16.390756 11.578908 -17.092974 3.550256 1.212370 5.540998 -0.047992 2.181044 -7.493051 179.941600 0.000000 -11.697000
-7.078744 17.357974 -0.006758 50.283863 89.109909 68.294749 -9.828429 -1.142452 3.929481 -0.322651 -15.804499 -43.608933 0.254070 1.535851 43.578725 2.382787 12.768252 -5.915321 0.694300 0.000000 -23.117800 7.297101 -1.368435 3.002640 16.096669 11.327460 -16.115801 3.613042 1.231715 5.119787 0.057382 2.933302 -7.697181 179.973800 0.000000 -11.425401
-6.848258 17.356400 0.025443 24.400557 87.555073 42.559275 -9.897243 -0.970515 4.308224 0.292544 -16.092274 -43.867125 -0.001602 1.381844 39.062469 2.301699 11.977180 -6.168290 0.639600 0.000001 -23.059400 6.981190 -1.232766 2.828868 16.028710 11.354321 -15.002542 3.700167 1.346094 5.050951 0.195654 3.808247 -7.903742 179.998800 0.000000 -11.397100
-6.619376 17.350181 0.056308 12.782700 86.268117 31.053806 -9.685244 -0.793137 4.603219 1.112373 -16.229463 -43.833937 -0.233029 1.118998 34.393533 2.167227 10.932618 -6.361958 0.582200 0.000000 -23.280300 7.005848 -1.092320 2.711891 16.147118 11.443313 -13.950891 3.758569 1.405031 5.088306 0.305196 4.598995 -8.250557 -179.987900 0.000000 -11.799100
-6.391882 17.339281 0.085733 6.204329 85.061859 24.553325 -9.464110 -0.703555 4.847620 2.039552 -16.276283 -43.508666 -0.445030 0.788439 29.620241 1.977407 9.678674 -6.432873 0.529200 0.000000 -23.819400 7.075827 -1.015293 2.612439 16.336574 11.573782 -12.936975 3.807353 1.420354 5.241370 0.388081 5.325264 -8.752934 -179.990400 -0.000000 -12.690700
-6.165770 17.323785 0.113609 1.810494 83.829311 20.187886 -9.288438 -0.674025 5.045106 3.059942 -16.227875 -42.904735 -0.636214 0.431152 24.857132 1.742487 8.282500 -6.340522 0.484800 0.000000 -24.691600 7.130581 -0.975360 2.509831 16.583097 11.746164 -11.921410 3.857014 1.405910 5.534998 0.452096 6.012262 -9.386696 179.988100 -0.000000 -14.145900
-5.940611 17.303851 0.139889 -1.441552 82.539447 16.909361 -9.166432 -0.685882 5.192829 4.158678 -16.081728 -42.071392 -0.798562 0.078551 20.283325 1.477116 6.807324 -6.084092 0.445200 -0.000000 -25.795901 7.161705 -0.957643 2.401580 16.889816 11.958599 -10.899838 3.911141 1.365105 5.991462 0.502179 6.666288 -10.111197 179.946600 -0.000000 -16.107100
-5.715751 17.279975 0.164917 -3.959903 81.195925 14.314114 -9.096281 -0.726124 5.288437 5.289181 -15.828751 -41.092863 -0.927634 -0.240889 16.112245 1.197564 5.299560 -5.704793 0.401900 0.000000 -26.985100 7.171923 -0.958522 2.293569 17.250903 12.203873 -9.896798 3.968708 1.294858 6.640510 0.542659 7.283513 -10.864771 179.887201 -0.000000 -18.245500
-5.490677 17.252855 0.189339 -5.917483 79.816952 12.236203 -9.071675 -0.782476 5.330179 6.373686 -15.449558 -40.066445 -1.027233 -0.504243 12.549324 0.918320 3.782938 -5.274194 0.345800 -0.000000 -28.151200 7.168307 -0.978247 2.189588 17.650204 12.458974 -8.952085 4.025762 1.188737 7.525418 0.577790 7.861781 -11.589043 179.814400 -0.000000 -20.198000
-5.265090 17.223650 0.214087 -7.363937 78.429982 10.634129 -9.083109 -0.841851 5.324442 7.330444 -14.945729 -39.078364 -1.105249 -0.699757 9.736334 0.653892 2.291510 -4.863781 0.274700 -0.000001 -29.259900 7.162153 -1.018262 2.089077 18.055726 12.680702 -8.120263 4.075120 1.038496 8.705032 0.611510 8.405456 -12.243735 179.732800 0.000000 -21.726200
